<?xml version="1.0" encoding="utf-8"?>
<!-- Generator: Adobe Illustrator 12.0.0, SVG Export Plug-In . SVG Version: 6.00 Build 51448)  -->
<!DOCTYPE svg PUBLIC "-//W3C//DTD SVG 1.1//EN" "http://www.w3.org/Graphics/SVG/1.1/DTD/svg11.dtd" [
	<!ENTITY ns_svg "http://www.w3.org/2000/svg">
	<!ENTITY ns_xlink "http://www.w3.org/1999/xlink">
]>
<svg  version="1.1" id="Layer_1" xmlns="&ns_svg;" xmlns:xlink="&ns_xlink;" width="239.641" height="200"
	 viewBox="0 0 239.641 200" overflow="visible" enable-background="new 0 0 239.641 200" xml:space="preserve">
<g>
	<path fill-rule="evenodd" clip-rule="evenodd" fill="#FFCD33" d="M218.037,89.456c-1.054-10.786-2.938-30.067-3.214-32.887
		c3.265-1.715,24.817-13.006,24.817-13.006s-24.01-7.852-27.403-8.961L208.225,0h-0.002l-5.124,6.914c0,0-1.997,2.694-4.54,6.122
		l-7.02-0.945c-8.333-1.07-16.778-1.582-25.117-1.525c-39.147,0.27-76.444,12.536-107.858,35.473l-5.421,3.956
		c0,0,5.53,4.384,7.535,5.974c-13.373,9.483-25.367,20.635-35.637,33.097c-6.924,0.621-13.71,1.221-20.326,1.752h0l-4.697,0.377
		L0,189.126L7.557,185c8.768-4.789,17.841-8.99,27.145-12.598c3.196,2.622,6.41,5.261,7.62,6.255L34.585,200h0.713l9.415-3.386
		c24.91-8.953,48.645-13.122,74.7-13.122c24.84,0,50.528,4.476,74.29,12.943L203.7,200h0.181l-7.783-21.495
		c1.21-0.994,4.419-3.626,7.594-6.23c9.306,3.59,18.379,7.772,27.146,12.541l7.546,4.105l0.019-97.758l-4.701-0.375
		C228.579,90.378,223.349,89.925,218.037,89.456L218.037,89.456z"/>
	<path fill-rule="evenodd" clip-rule="evenodd" fill="#FFFFFF" d="M233.438,94.184c-34.783-2.786-74.222-7.443-114.053-7.443
		c-17.295,0-34.51,0.875-51.301,2.095c19.324-7.168,39.949-10.995,61.049-11.14l11.187,0.164l-2.721-2.926l-2.626-2.794
		c0.001,0.003,0.003,0.003,0.003,0.003l-0.071-0.077c-0.007-0.008-2.999-3.193-5.292-5.633c10.825-0.045,21.633,0.89,32.188,2.767
		c-5.635,7.951-10.604,14.965-10.604,14.965s39.423-18.693,41.514-19.684c1.552,1.625,21.698,22.75,21.698,22.75
		s-2.984-30.505-3.188-32.612c1.797-0.941,19.702-10.324,19.702-10.324s-19.956-6.527-21.809-7.131
		c-0.23-1.984-3.272-28.221-3.272-28.221l-2.563,3.458c0,0-1.335,1.802-3.171,4.28l-9.014-1.212
		c-8.168-1.05-16.452-1.553-24.641-1.496c-38.428,0.265-75.039,12.305-105.874,34.818l-1.806,1.319c0,0,5.681,4.504,7.56,5.993
		C51.298,66.207,37.958,78.451,26.746,92.33c-7.417,0.668-14.685,1.313-21.751,1.883l-1.566,0.123l-0.017,89.055l2.519-1.375
		c9.482-5.179,19.315-9.681,29.409-13.497c3.25,2.668,9.835,8.073,11.01,9.035c-0.7,1.933-6.193,17.085-6.193,17.085l3.412-1.228
		c25.291-9.089,49.394-13.324,75.852-13.324c25.225,0,51.309,4.545,75.434,13.143l3.4,1.214c0,0-5.473-15.113-6.172-17.043
		c1.186-0.976,7.835-6.429,10.982-9.013c10.095,3.799,19.926,8.282,29.407,13.439l2.516,1.367l0.016-88.887L233.438,94.184
		L233.438,94.184z"/>
	<path fill-rule="evenodd" clip-rule="evenodd" fill="#025E3D" d="M129.138,64.73c11.546-0.079,22.821,0.942,33.743,2.937
		c4.198-5.924,8.605-12.146,11.507-16.239c-9.813-1.587-19.898-2.398-30.2-2.328c-14.687,0.102-28.951,1.969-42.59,5.364l2.018,2.12
		l0.134,0.033l5.125,5.076l-0.014,0.006l1.699,2.055c-23.821,4.65-45.935,13.97-65.3,26.926c5.607-0.488,11.28-0.964,17.013-1.407
		c20.619-8.399,43.188-13.116,66.847-13.281c2.43-0.017,4.841,0.031,7.237,0.106l-2.625-2.794l0.002,0.002l-0.083-0.091
		l-7.856-8.362l0.098-0.061C126.973,64.762,128.052,64.737,129.138,64.73L129.138,64.73z"/>
	<path fill-rule="evenodd" clip-rule="evenodd" fill="#036635" d="M190.865,17.153c-7.973-1.024-16.12-1.536-24.401-1.48
		C127.182,15.943,90.9,28.757,61.583,50.163l7.285,5.774l0.033-0.019l0.308,0.245C54.02,66.085,40.49,78.239,29.084,92.121
		c2.172-0.197,4.367-0.394,6.564-0.591C50.707,77.57,68.266,66.15,87.591,57.98l-3.343-3.194l0.003-0.004l-4.696-4.432
		c23.294-11.234,49.45-17.646,77.095-17.838c2.908-0.021,5.8,0.033,8.671,0.149c-5.962-6.896-11.836-13.691-11.836-13.691
		s33.995,11.117,36.157,11.823c0.779-1.05,5.612-7.57,9.305-12.553L190.865,17.153L190.865,17.153z"/>
	<path fill-rule="evenodd" clip-rule="evenodd" fill="#28231C" d="M202.083,16.87c0,0-10.508,14.174-11.804,15.922
		c-2.133-0.697-31.496-10.299-31.496-10.299s19.408,22.455,20.987,24.281c-1.427,2.015-23.424,33.064-23.424,33.064
		s34.674-16.442,36.744-17.427c1.529,1.604,19.141,20.07,19.141,20.07s-2.615-26.759-2.823-28.84
		c1.763-0.92,17.152-8.984,17.152-8.984s-17.197-5.622-19.013-6.216c-0.228-1.958-2.901-25.028-2.901-25.028L202.083,16.87
		L202.083,16.87z"/>
	<polygon fill-rule="evenodd" clip-rule="evenodd" fill="#FFCC53" points="102.541,124.348 102.541,124.349 102.541,124.348 	"/>
	<path fill-rule="evenodd" clip-rule="evenodd" fill="#28231C" d="M201.216,167.705c-26.081-9.565-53.864-14.547-81.847-14.547
		c-28.105,0-56.002,5.023-82.184,14.675l11.175,9.171l-5.368,14.807c25.401-9.129,49.72-13.425,76.428-13.425
		c25.421,0,51.761,4.602,76.004,13.242l-5.353-14.779L201.216,167.705L201.216,167.705z"/>
	<path fill-rule="evenodd" clip-rule="evenodd" fill="#FFCD33" d="M43.14,90.866c12.543-10.746,29.166-21.724,49.661-29.2
		c-21.817,6.431-38.477,16.068-55.233,29.692C39.417,91.193,41.276,91.029,43.14,90.866L43.14,90.866z"/>
	<path fill-rule="evenodd" clip-rule="evenodd" fill="#025E3D" d="M233.3,95.879c-33.857-2.711-72.663-7.437-113.916-7.437
		c-41.392,0-80.317,4.735-114.252,7.464l-0.016,84.615c33.936-18.53,72.862-29.065,114.253-29.065
		c41.254,0,80.06,10.461,113.915,28.876L233.3,95.879L233.3,95.879z"/>
	<path fill-rule="evenodd" clip-rule="evenodd" fill="#025E3D" d="M119.384,88.443c-41.392,0-80.317,4.735-114.252,7.464
		L119.384,88.443L119.384,88.443z"/>
	<path fill-rule="evenodd" clip-rule="evenodd" fill="#025E3D" d="M233.3,95.879c-33.857-2.711-72.663-7.437-113.916-7.437
		L233.3,95.879L233.3,95.879z"/>
	<path fill-rule="evenodd" clip-rule="evenodd" fill="#FFCD33" d="M203.215,19.008c-1.154,1.559-11.894,16.044-11.894,16.044
		l-0.182,0.247c0,0-23.063-7.542-25.674-8.396l29.59,17.784L203.215,19.008L203.215,19.008z"/>
	<path fill-rule="evenodd" clip-rule="evenodd" fill="#FFCD33" d="M162.854,74.435l32.202-29.744L182.492,46.6
		c0.027,0.032,0.043,0.05,0.043,0.05s-17.975,25.371-19.687,27.787C162.85,74.437,162.852,74.435,162.854,74.435L162.854,74.435z"/>
	<path fill-rule="evenodd" clip-rule="evenodd" fill="#FFCD33" d="M221.169,45.117c-1.694-0.554-15.513-5.071-15.513-5.071
		l-10.598,4.642L221.169,45.117L221.169,45.117z"/>
	<path fill-rule="evenodd" clip-rule="evenodd" fill="#FFCD33" d="M207.254,52.411l-12.198-7.72l14.521,31.864v0.001
		c-0.216-2.223-2.358-24.126-2.358-24.126S207.231,52.422,207.254,52.411L207.254,52.411z"/>
	<path fill-rule="evenodd" clip-rule="evenodd" fill="#FFFFFF" d="M58.657,173.082l-0.704-2.869l6.703-1.646
		c1.213-0.299,1.931,0.003,2.153,0.903c0.11,0.457,0.039,0.865-0.217,1.221c-0.256,0.356-0.66,0.603-1.212,0.737L58.657,173.082
		L58.657,173.082z M53.605,168.242L53.605,168.242l3.123,12.707l3.643-0.895l-1.01-4.107l6.863-1.686
		c1.668-0.41,2.867-1.104,3.597-2.089c0.731-0.982,0.928-2.157,0.593-3.521c-0.312-1.268-1.03-2.184-2.155-2.749
		c-1.125-0.563-2.447-0.658-3.962-0.287L53.605,168.242L53.605,168.242z"/>
	<path fill-rule="evenodd" clip-rule="evenodd" fill="#FFFFFF" d="M77.266,170.552l1.601-4.625l3.032,3.842L77.266,170.552
		L77.266,170.552z M80.444,162.489L80.444,162.489l-4.195,0.709l-4.976,14.109l3.81-0.643l1.031-2.924l7.922-1.339l1.935,2.425
		l3.809-0.644L80.444,162.489L80.444,162.489z"/>
	<polygon fill-rule="evenodd" clip-rule="evenodd" fill="#FFFFFF" points="102.411,162.82 96.226,163.457 97.262,173.537 
		93.533,173.919 92.495,163.84 86.304,164.475 86.001,161.541 102.108,159.883 102.411,162.82 	"/>
	<path fill-rule="evenodd" clip-rule="evenodd" fill="#FFFFFF" d="M108.749,165.521l-0.081-2.951l6.901-0.187
		c1.248-0.034,1.885,0.413,1.912,1.339c0.011,0.47-0.144,0.854-0.471,1.147c-0.326,0.294-0.773,0.447-1.341,0.464L108.749,165.521
		L108.749,165.521z M118.531,167.757L118.531,167.757c1.818-0.758,2.698-2.117,2.646-4.073c-0.036-1.306-0.542-2.351-1.523-3.141
		c-0.979-0.79-2.25-1.164-3.811-1.121l-11.002,0.298l0.354,13.08l3.748-0.103l-0.114-4.226l5.726-0.155l3.197,4.143l4.246-0.114
		L118.531,167.757L118.531,167.757z"/>
	<polygon fill-rule="evenodd" clip-rule="evenodd" fill="#FFFFFF" points="128.51,172.675 124.763,172.559 125.167,159.481 
		128.916,159.596 128.51,172.675 	"/>
	<path fill-rule="evenodd" clip-rule="evenodd" fill="#FFFFFF" d="M144.698,170.15c-1.02,0.64-2.344,0.886-3.969,0.738
		c-1.64-0.147-2.908-0.629-3.804-1.443c-0.896-0.811-1.291-1.815-1.182-3.013c0.106-1.168,0.68-2.074,1.721-2.717
		c1.044-0.645,2.369-0.894,3.983-0.748c1.598,0.146,2.848,0.629,3.75,1.449c0.9,0.819,1.301,1.813,1.192,2.981
		C146.283,168.595,145.718,169.512,144.698,170.15L144.698,170.15z M148.293,162.762L148.293,162.762
		c-1.665-1.575-3.854-2.485-6.563-2.732c-2.725-0.247-5.049,0.254-6.97,1.505c-1.693,1.103-2.628,2.619-2.804,4.556
		c-0.178,1.963,0.461,3.633,1.917,5.005c1.679,1.576,3.882,2.486,6.605,2.733c2.712,0.247,5.034-0.255,6.97-1.505
		c1.678-1.087,2.605-2.612,2.784-4.577C150.407,165.811,149.76,164.148,148.293,162.762L148.293,162.762z"/>
	<polygon fill-rule="evenodd" clip-rule="evenodd" fill="#FFFFFF" points="167.425,167.016 161.291,165.994 159.623,175.987 
		155.925,175.37 157.594,165.375 151.455,164.349 151.942,161.438 167.91,164.105 167.425,167.016 	"/>
	<path fill-rule="evenodd" clip-rule="evenodd" fill="#FFFFFF" d="M182.09,171.542c-1.773-1.361-3.644-2.28-5.615-2.76
		c-2.523-0.611-3.883-0.514-4.079,0.297c-0.11,0.453,0.252,0.853,1.087,1.199c1.228,0.415,2.461,0.831,3.701,1.249
		c2.336,0.786,3.97,1.592,4.907,2.417c0.99,0.854,1.348,1.846,1.073,2.976c-0.335,1.379-1.245,2.304-2.731,2.774
		c-1.532,0.476-3.516,0.416-5.956-0.176c-3.307-0.802-6.066-2.385-8.281-4.744l2.43-1.815c1.597,1.715,3.778,2.908,6.547,3.58
		c2.505,0.609,3.855,0.511,4.051-0.294c0.094-0.389-0.335-0.785-1.285-1.192c-0.542-0.234-1.939-0.721-4.195-1.461
		c-3.959-1.295-5.664-3.071-5.118-5.329c0.316-1.292,1.203-2.166,2.663-2.618c1.461-0.455,3.321-0.407,5.583,0.142
		c3.365,0.817,5.86,2.116,7.487,3.897L182.09,171.542L182.09,171.542z"/>
	<path fill-rule="evenodd" clip-rule="evenodd" fill="#FFFFFF" d="M53.769,96.571c-4.566,0.382-9.065,0.776-13.478,1.172
		c-1.272,4.055-6.447,20.555-8.593,27.402c-2.037-6.697-6.742-22.169-7.884-25.925c-4.605,0.403-10.426,0.916-13.75,1.206
		c-0.001,7.273-0.011,59.438-0.013,71.953c4.205-2.111,8.47-4.099,12.789-5.957c0.002-2.737,0.008-15.048,0.008-24.398
		c2.46,8.037,5.329,17.434,5.865,19.302l0.698,2.38c1.607-0.639,3.222-1.251,4.842-1.854c0.708-2.187,4.12-12.717,6.72-20.75
		c0,6.592,0.008,16.263,0.01,18.359c4.224-1.43,8.487-2.748,12.785-3.946L53.769,96.571L53.769,96.571z"/>
	<path fill-rule="evenodd" clip-rule="evenodd" fill="#FFCD33" d="M41.574,99.34c-0.019,0.058-9.902,31.571-9.902,31.571
		s-8.361-27.495-9.085-29.875c-1.948,0.17-8.653,0.759-10.822,0.948c0,2.738-0.011,62.855-0.013,67.681
		c3.093-1.51,6.227-2.968,9.386-4.347c0-1.382,0.006-34.681,0.006-34.681l9.204,30.219c-0.001-0.003,0.075,0.258,0.176,0.6
		c1.083-0.414,1.729-0.662,2.359-0.903c0.453-1.4,9.778-30.101,9.778-30.101s0.019,23.893,0.021,26.669
		c3.113-1.022,6.249-1.989,9.381-2.88c0.001-2.36,0.003-52.409,0.004-55.814C49.588,98.644,43.188,99.201,41.574,99.34L41.574,99.34
		z"/>
	<path fill-rule="evenodd" clip-rule="evenodd" fill="#FFFFFF" d="M107.313,99.13v12.094c0,1.855,1.226,3.237,2.376,4.391
		c0.063,0.06,15.775,16.533,15.782,16.54c0,1.003,0,1.545,0,3.518c-1.704,0-3.354,0-5.059,0c0-1.125,0.001-3.749,0.001-3.749h-13.1
		v8.92c0,3.313,3.217,5.722,7.648,5.722c4.442,0,11.433,0.269,16.16,0.269c4.615,0,7.649-3.801,7.649-6.672v-10.844
		c0-2.16-1.593-3.785-3.056-5.278c0,0-14.041-14.756-15.102-15.726c0-0.758,0-2.445,0-3.799c1.703,0,3.354,0,5.057,0
		c0,1.03,0.002,3.752,0.002,3.752l13.099,0.001V99.26c0-2.877-2.365-5.781-7.649-5.781l-16.16-0.004
		C110.673,93.479,107.313,95.964,107.313,99.13L107.313,99.13z"/>
	<path fill-rule="evenodd" clip-rule="evenodd" fill="#FFCD33" d="M109.016,99.13v12.094c0,1.087,0.719,2.024,1.878,3.188
		c0.017,0.016,0.05,0.046,14.414,15.105l1.863,1.953l0.002,0.682l0.001,5.224l-8.464-0.002c0,0,0-2.733,0-3.747
		c-2.191,0-7.503,0-9.695,0c0,2.229,0,7.217,0,7.217c0,2.33,2.5,4.02,5.946,4.02l16.16,0.268c3.631,0,5.947-2.941,5.947-4.969
		v-10.844c0-1.466-1.248-2.739-2.57-4.087c-5.644-5.933-14.287-14.979-15.034-15.66l-0.554-0.506v-6.253h8.462
		c0,0,0.001,2.736,0.001,3.753c2.191,0,7.502,0,9.695,0c0-2.238,0-7.305,0-7.305c0-1.881-1.56-4.078-5.947-4.078l-16.16-0.005
		C111.684,95.18,109.016,96.953,109.016,99.13L109.016,99.13z"/>
	<path fill-rule="evenodd" clip-rule="evenodd" fill="#FFFFFF" d="M215.96,126.585c-3.101-9.726-7.631-23.891-8.966-28.061
		c-4.499-0.41-9.098-0.827-13.783-1.24v60.681c4.172,1.322,8.308,2.754,12.401,4.299c0-5.237,0.002-26.439,0.002-26.571
		c3.334,10.465,8.406,26.521,9.649,30.454c4.422,1.89,8.788,3.908,13.091,6.061c0.002-12.487,0.012-64.532,0.013-71.809
		c-3.003-0.263-8.052-0.705-12.416-1.087C215.953,103.818,215.96,126.584,215.96,126.585L215.96,126.585z"/>
	<path fill-rule="evenodd" clip-rule="evenodd" fill="#FFCD33" d="M194.914,156.737c3.033,0.979,6.036,2.019,8.994,3.103
		c0-3.972-0.002-35.239-0.002-35.239s12.308,38.911,12.75,40.303c3.375,1.457,6.713,3,9.997,4.597c0-4.901,0.01-64.67,0.01-67.541
		c-1.895-0.166-7.435-0.651-9.01-0.788c0.002,3.226,0.017,36.332,0.017,36.332s-11.789-36.871-11.952-37.384
		c-1.618-0.146-8.291-0.746-10.804-0.972C194.914,102.572,194.914,154.453,194.914,156.737L194.914,156.737z"/>
	<path fill-rule="evenodd" clip-rule="evenodd" fill="#FFFFFF" d="M89.957,94.116c-5.809,0.277-11.554,0.618-17.222,1.003
		l-0.373,1.236l-14.261,57.996c4.624-1.199,9.284-2.262,13.975-3.188c0.456-1.778,2.95-11.537,3.483-13.61c0.002,0,8.28,0,11.675,0
		c0.433,1.947,2.017,9.08,2.4,10.801c4.578-0.563,9.174-0.996,13.785-1.3L89.957,94.116L89.957,94.116z M78.289,126.507
		L78.289,126.507l0.004-0.019c0,0,1.755-7.161,3.286-13.409c1.338,5.978,2.474,11.06,3.003,13.428
		C84.581,126.507,80.798,126.507,78.289,126.507L78.289,126.507z"/>
	<path fill-rule="evenodd" clip-rule="evenodd" fill="#FFCD33" d="M74.021,96.75c-0.003,0.014-0.028,0.096-0.028,0.096
		c0,0.01-10.759,43.755-13.57,55.189c3.407-0.843,6.838-1.625,10.268-2.317c0.452-1.76,3.549-13.866,3.549-13.866H88.6
		c0,0,2.269,10.214,2.364,10.646c3.423-0.399,6.869-0.724,10.308-0.979c-0.897-3.529-11.985-47.134-12.618-49.621
		C86.487,96.023,75.88,96.642,74.021,96.75L74.021,96.75z M76.641,126.083L76.641,126.083l5.015-20.509l5.052,22.636H76.119
		L76.641,126.083L76.641,126.083z"/>
	<path fill-rule="evenodd" clip-rule="evenodd" fill="#FFFFFF" d="M155.031,94.394c-2.499-0.081-4.672,0.731-6.279,2.337
		c-1.054,1.05-1.333,2.924-1.333,3.768v42.875c0,3.88,4.342,5.243,7.382,5.727c5.355,0.852,16.617,2.983,20.604,3.971
		c4.289,1.064,8.857-1.536,8.857-5.153V101.33c0-3.699-3.715-5.102-7.646-5.422l-21.522-1.514h-0.059
		C155.035,94.394,155.033,94.394,155.031,94.394L155.031,94.394z M160.517,105.813L160.517,105.813
		c2.598,0.209,8.384,0.681,10.646,0.864c0.001,3.001,0.001,30.262,0.001,34.188c0,0-8.318-1.486-10.647-1.96
		C160.517,136.215,160.516,109.333,160.517,105.813L160.517,105.813z"/>
	<path fill-rule="evenodd" clip-rule="evenodd" fill="#FFCD33" d="M149.954,97.936c-0.567,0.567-0.833,1.865-0.833,2.563v42.875
		c0,2.563,3.235,3.614,5.947,4.046c5.49,0.872,16.75,3.011,20.746,3.999c1.863,0.464,3.976,0.051,5.382-1.049
		c0.509-0.398,1.364-1.248,1.364-2.452V101.33c0-2.67-3.308-3.5-6.083-3.725c0.019,0.001-21.503-1.514-21.503-1.514
		C152.961,96.029,151.225,96.667,149.954,97.936L149.954,97.936z M158.815,140.295L158.815,140.295l-0.001-36.328l14.052,1.141
		l0.001,37.841L158.815,140.295L158.815,140.295z"/>
</g>
</svg>
